<?xml version="1.0" encoding="UTF-8"?>
<svg version="1.1" xmlns="http://www.w3.org/2000/svg" width="1030" height="442">
<path d="M0 0 C339.9 0 679.8 0 1030 0 C1030 145.86 1030 291.72 1030 442 C690.1 442 350.2 442 0 442 C0 296.14 0 150.28 0 0 Z " fill="#FDFEFE" transform="translate(0,0)"/>
<path d="M0 0 C0.85674316 0.19207031 1.71348633 0.38414063 2.59619141 0.58203125 C7.41158588 1.6670866 12.21054655 2.80581267 17 4 C17 4.66 17 5.32 17 6 C17.76183594 6.15855469 18.52367187 6.31710938 19.30859375 6.48046875 C26.36481803 8.0749464 31.9057332 10.16591924 38 14 C39.24135372 14.74488085 40.48362386 15.48823558 41.7265625 16.23046875 C50.03103667 21.24209699 57.70102486 26.57644711 65 33 C65.82757813 33.71800781 66.65515625 34.43601563 67.5078125 35.17578125 C84.13588486 49.84914291 84.13588486 49.84914291 90 59 C90.66257812 59.91136719 91.32515625 60.82273437 92.0078125 61.76171875 C100.15430951 73.01951628 108.40678614 85.68843053 111.359375 99.41796875 C112.12438628 102.5013374 113.32053245 105.2645936 114.5625 108.1875 C117.14111891 114.63791906 117.99142202 120.81022392 118.640625 127.6640625 C118.87961457 130.99350447 118.87961457 130.99350447 120 134 C121.00416788 150.16253848 120.11943602 166.13377764 117 182 C116.75743556 183.32805621 116.51523061 184.65617814 116.2734375 185.984375 C115.06078389 192.19422754 113.47269245 197.90759077 110.9609375 203.71484375 C110.03675703 205.91259 109.31822184 208.09552347 108.625 210.375 C103.36921636 226.3092012 93.09021772 241.5528221 82 254 C81.4730957 254.60312012 80.94619141 255.20624023 80.40332031 255.82763672 C68.74857499 269.10200555 56.00318953 280.26964573 40 288 C37.80726227 285.80726227 37.57463995 284.97250125 36.9296875 282.03515625 C36.75429443 281.24044922 36.57890137 280.44574219 36.39819336 279.62695312 C35.69763772 276.19315173 35.03302237 272.75525831 34.41748047 269.30517578 C34.07683903 267.42427726 33.68792451 265.55217438 33.28515625 263.68359375 C32.88641941 260.60570375 32.86112414 258.9018557 34 256 C37.92154419 251.73920198 42.32829887 248.39138441 47 245 C63.73172829 231.99333182 77.42876148 210.5625501 82.25390625 190.0625 C83.07819596 186.67902811 84.03696767 183.34644439 85 180 C90.22716055 161.48913787 89.80084372 140.5676467 85 122 C84.74863281 120.98035156 84.49726563 119.96070313 84.23828125 118.91015625 C83.54927429 116.25255799 82.79424706 113.62777484 82 111 C81.79890625 110.28070313 81.5978125 109.56140625 81.390625 108.8203125 C72.71006832 79.92041037 48.64698093 55.41044748 22.8125 41.0625 C22.09707031 40.68222656 21.38164062 40.30195312 20.64453125 39.91015625 C19 39 19 39 18 38 C15.00610858 37.65055526 12.90344294 37.44286931 10 38 C7.67714415 39.99586685 6.20510661 41.53434945 4.4375 43.9375 C3.96989258 44.53143555 3.50228516 45.12537109 3.02050781 45.73730469 C1.65816619 47.47572405 0.32820471 49.2354518 -1 51 C-2.24921337 52.58395404 -3.49908878 54.16738648 -4.75 55.75 C-5.83508364 57.16532648 -6.91839629 58.58201236 -8 60 C-9.28988591 61.66804523 -10.58153467 63.33472885 -11.875 65 C-12.44992188 65.7425 -13.02484375 66.485 -13.6171875 67.25 C-15 69 -15 69 -16 70 C-21.4282803 70.39014952 -26.85789905 70.48541234 -32.29858398 70.56982422 C-34.12911432 70.60636691 -35.95938183 70.66082066 -37.78881836 70.73388672 C-52.95966209 71.33065516 -52.95966209 71.33065516 -57.91430664 68.09936523 C-59.94655833 65.82612954 -61.46850039 63.62850226 -63 61 C-64.08611199 59.59007253 -65.1880124 58.19201526 -66.3125 56.8125 C-68.47296016 54.03547016 -70.55949322 51.21981323 -72.6015625 48.35546875 C-73.54657979 47.07009541 -74.49189267 45.78493933 -75.4375 44.5 C-75.86780518 43.87585205 -76.29811035 43.2517041 -76.74145508 42.60864258 C-78.66699217 40.02852995 -79.9726385 38.30154155 -83.12939453 37.375 C-85.57919728 37.02672128 -85.57919728 37.02672128 -89 37 C-89 37.66 -89 38.32 -89 39 C-90.00417969 39.39960937 -91.00835937 39.79921875 -92.04296875 40.2109375 C-96.09068368 41.95046817 -99.66752553 44.16536761 -103.3125 46.625 C-103.96404053 47.06158936 -104.61558105 47.49817871 -105.28686523 47.94799805 C-110.11683846 51.25001922 -114.50779796 54.86034993 -118.75390625 58.89453125 C-121 61 -121 61 -123.9375 63.34765625 C-127.25402249 66.08807659 -129.82801441 69.2203816 -132.4375 72.625 C-132.91050537 73.23601562 -133.38351074 73.84703125 -133.87084961 74.4765625 C-139.26441354 81.52961392 -144.39609099 88.42828037 -147 97 C-147.66 97 -148.32 97 -149 97 C-149.09796875 97.60585937 -149.1959375 98.21171875 -149.296875 98.8359375 C-150.08773735 103.26749376 -151.01238892 107.26845589 -152.875 111.375 C-158.37303153 124.81003946 -159.36808532 138.76602909 -159.3125 153.125 C-159.31004272 153.79946167 -159.30758545 154.47392334 -159.30505371 155.16882324 C-159.66192698 162.28989111 -159.66192698 162.28989111 -158 169 C-157.83273461 170.34276934 -157.70248813 171.69029149 -157.59375 173.0390625 C-154.36908291 204.10748961 -135.10565289 231.28227276 -112 251 C-109.38194906 253.07296778 -106.72935657 255.07615554 -104 257 C-104.81840016 263.55660819 -106.19362208 269.97654958 -107.5625 276.4375 C-107.79646484 277.55060547 -108.03042969 278.66371094 -108.27148438 279.81054688 C-108.84565622 282.5407926 -109.42188308 285.2705874 -110 288 C-132.92630437 282.91277502 -155.15387464 255.01799858 -167.13867188 236.21337891 C-172 228.14670139 -172 228.14670139 -172 225 C-172.66 225 -173.32 225 -174 225 C-174.4228125 223.85144531 -174.845625 222.70289063 -175.28125 221.51953125 C-176.63369192 217.91063839 -178.09227024 214.35983967 -179.6003418 210.8137207 C-182.63697814 203.63704066 -185.35093359 196.63630183 -187 189 C-187.24943359 187.97350342 -187.24943359 187.97350342 -187.50390625 186.92626953 C-194.29067903 158.63420715 -192.81422885 129.27968216 -183 102 C-182.49563905 100.3971991 -181.99493781 98.79323574 -181.5 97.1875 C-180.13694912 93.05940304 -178.22365993 89.2893051 -176.18359375 85.45703125 C-174.92255184 83.02144911 -174.92255184 83.02144911 -174.25 80.33203125 C-172.39436671 75.38560876 -169.50184833 71.24412272 -166.5625 66.875 C-165.93287354 65.93720703 -165.30324707 64.99941406 -164.65454102 64.03320312 C-159.64012236 56.69286126 -154.28804083 50.29701093 -148 44 C-147.05219154 42.96440082 -146.10829908 41.92520658 -145.16796875 40.8828125 C-133.70322715 28.44127117 -119.24871564 19.59827377 -104.4375 11.625 C-103.74172852 11.24956055 -103.04595703 10.87412109 -102.32910156 10.48730469 C-98.88573791 8.70980774 -96.95739385 8 -93 8 C-93 7.34 -93 6.68 -93 6 C-92.35933594 5.89042969 -91.71867187 5.78085937 -91.05859375 5.66796875 C-90.19363281 5.50941406 -89.32867187 5.35085937 -88.4375 5.1875 C-87.59058594 5.03667969 -86.74367188 4.88585938 -85.87109375 4.73046875 C-82.86074588 4.04818682 -82.86074588 4.04818682 -79.6484375 2.52734375 C-75.72104514 0.88322125 -72.3705161 0.13403183 -68.1875 -0.625 C-63.4605071 -1.37454705 -63.4605071 -1.37454705 -59 -3 C-39.2035337 -5.78795219 -19.39659064 -4.43520737 0 0 Z " fill="#037BFE" transform="translate(220,31)"/>
<path d="M0 0 C6.6 0 13.2 0 20 0 C21.33868878 4.01606635 22.43590692 7.63256231 23.296875 11.72314453 C23.53051758 12.82514191 23.76416016 13.92713928 24.00488281 15.06253052 C24.25077148 16.24072357 24.49666016 17.41891663 24.75 18.6328125 C25.0087793 19.86103729 25.26755859 21.08926208 25.53417969 22.35470581 C26.08047906 24.95162537 26.62540074 27.54878735 27.16796875 30.14648438 C27.71993338 32.7886664 28.27456051 35.43026326 28.83203125 38.07128906 C29.64087291 41.90370353 30.44607369 45.73686421 31.25 49.5703125 C31.49588867 50.73636017 31.74177734 51.90240784 31.99511719 53.10379028 C33.3310381 59.51292843 34.53195276 65.92266342 35.55541992 72.38937378 C35.97424219 74.84874715 36.48712861 77.26055881 37.0625 79.6875 C37.74084594 82.59395145 38.1744651 85.40270557 38.4375 88.375 C38.76352415 91.70959791 39.42824932 94.72443421 40.375 97.9375 C41.81852343 102.91975807 42.69900108 107.88532111 43.5 113 C44.42562308 118.88259413 45.59348412 124.51495321 47.26171875 130.23828125 C48.28006387 134.04764633 48.96593561 137.8992649 49.66845703 141.77758789 C50.99250007 149.05485323 52.42710705 156.30894273 53.875 163.5625 C54.00407745 164.20997192 54.13315491 164.85744385 54.2661438 165.52453613 C56.19284682 175.17378859 58.24420155 184.78961828 60.37963867 194.39453125 C61.69236909 200.36964345 62.77654201 206.30644827 63.54296875 212.37890625 C63.94853699 215.08838725 63.94853699 215.08838725 64.98046875 217.94140625 C66.72415777 223.17247332 67.29594475 228.54860077 68 234 C68.21849609 235.12341797 68.21849609 235.12341797 68.44140625 236.26953125 C68.83889402 239.36741216 68.37164593 241.49805664 66.52441406 243.99291992 C59.57985537 251.4949096 52.41496347 258.77117932 45.1862793 265.99902344 C43.0373188 268.15020725 40.89653027 270.30932053 38.75585938 272.46875 C37.39111286 273.83642449 36.02589614 275.20362998 34.66015625 276.5703125 C34.02062515 277.21702911 33.38109406 277.86374573 32.72218323 278.53005981 C28.22886926 283 28.22886926 283 26 283 C25.73880371 283.58716797 25.47760742 284.17433594 25.20849609 284.77929688 C23.92886859 287.13070936 22.56915394 288.65983573 20.6640625 290.53125 C20.01179688 291.17707031 19.35953125 291.82289063 18.6875 292.48828125 C18.006875 293.15214844 17.32625 293.81601562 16.625 294.5 C15.61566406 295.49580078 15.61566406 295.49580078 14.5859375 296.51171875 C13.29398039 297.7858733 12.00012931 299.05811119 10.70410156 300.328125 C8.78994066 302.20608687 6.8912869 304.0990142 5 306 C0.25657065 304.55142605 -2.72344304 301.74512431 -6.16723633 298.33203125 C-6.76293427 297.75283432 -7.3586322 297.17363739 -7.97238159 296.57688904 C-9.9341365 294.66392559 -11.88402123 292.73945305 -13.83203125 290.8125 C-14.83463265 289.82449402 -14.83463265 289.82449402 -15.85748863 288.81652832 C-19.39317903 285.33160311 -22.91979883 281.83778878 -26.43920898 278.33642578 C-30.0703654 274.7273164 -33.730734 271.14943746 -37.39882374 267.57792664 C-40.22003805 264.82019158 -43.01862496 262.04031232 -45.81159019 259.2539978 C-47.15129659 257.92519454 -48.49935549 256.60475624 -49.85587502 255.29312134 C-61.78397304 243.73351228 -61.78397304 243.73351228 -61.89404297 237.50048828 C-61.53236389 235.11431885 -61.53236389 235.11431885 -61 233 C-60.84442627 231.90284668 -60.68885254 230.80569336 -60.52856445 229.67529297 C-60.309021 228.70736816 -60.08947754 227.73944336 -59.86328125 226.7421875 C-59.61819824 225.63456055 -59.37311523 224.52693359 -59.12060547 223.38574219 C-58.85393066 222.22719727 -58.58725586 221.06865234 -58.3125 219.875 C-57.75860615 217.37771688 -57.20522934 214.88031903 -56.65234375 212.3828125 C-56.2344458 210.51931152 -56.2344458 210.51931152 -55.80810547 208.61816406 C-54.62838021 203.33613134 -53.48909388 198.0462377 -52.375 192.75 C-52.17044189 191.77804687 -51.96588379 190.80609375 -51.75512695 189.8046875 C-50.11418214 181.85947704 -48.79982977 173.87698107 -47.51904297 165.8671875 C-46.11218622 157.25987174 -44.21729908 148.80818705 -42.2265625 140.3203125 C-39.66793049 129.36904717 -37.6030401 118.30767542 -35.5625 107.25 C-33.16845126 94.3609592 -30.38531074 81.54744215 -27.671875 68.72265625 C-24.9229036 55.70551927 -24.9229036 55.70551927 -22.5 42.625 C-21.21538426 35.17833055 -19.88190762 27.74179121 -18.5 20.3125 C-18.19739258 18.62664795 -18.19739258 18.62664795 -17.88867188 16.90673828 C-15.95286462 6.60992429 -15.95286462 6.60992429 -13 2 C-10.63386544 0.81693272 -9.13219264 0.86645392 -6.5 0.875 C-5.30890625 0.87113281 -5.30890625 0.87113281 -4.09375 0.8671875 C-2 1 -2 1 0 2 C0 1.34 0 0.68 0 0 Z " fill="#027BFE" transform="translate(181,108)"/>
<path d="M0 0 C14.52 0 29.04 0 44 0 C44 28.05 44 56.1 44 85 C55.55 85 67.1 85 79 85 C79 56.95 79 28.9 79 0 C93.52 0 108.04 0 123 0 C123 66.99 123 133.98 123 203 C108.48 203 93.96 203 79 203 C79 176.6 79 150.2 79 123 C67.45 123 55.9 123 44 123 C44 149.4 44 175.8 44 203 C29.48 203 14.96 203 0 203 C0 136.01 0 69.02 0 0 Z " fill="#010101" transform="translate(360,107)"/>
<path d="M0 0 C13.86 0 27.72 0 42 0 C42.029729 5.06565308 42.029729 5.06565308 42.06005859 10.23364258 C42.12687265 21.3736709 42.20451331 32.51360464 42.28752708 43.65352345 C42.33767111 50.40969893 42.38411376 57.16586217 42.421875 63.92211914 C42.45830583 70.43848559 42.50500886 76.95473089 42.55806351 83.47098351 C42.57664049 85.96092094 42.59173613 88.45088679 42.60334396 90.94086647 C42.62014981 94.42010778 42.64917136 97.89904364 42.68115234 101.37817383 C42.68331253 102.41467072 42.68547272 103.4511676 42.68769836 104.51907349 C42.69886185 105.46558273 42.71002533 106.41209198 42.7215271 107.38728333 C42.72705786 108.21044446 42.73258862 109.03360559 42.73828697 109.88171101 C42.87635874 112.30040334 42.87635874 112.30040334 45 115 C47.3851492 115.46559958 47.3851492 115.46559958 50.15625 115.3984375 C51.17847656 115.40230469 52.20070313 115.40617187 53.25390625 115.41015625 C54.86072266 115.39275391 54.86072266 115.39275391 56.5 115.375 C57.57121094 115.38660156 58.64242187 115.39820313 59.74609375 115.41015625 C60.76832031 115.40628906 61.79054688 115.40242188 62.84375 115.3984375 C64.25430664 115.39336182 64.25430664 115.39336182 65.69335938 115.38818359 C66.83514648 115.19603271 66.83514648 115.19603271 68 115 C70.11803938 111.82294093 70.25401567 111.02733477 70.2784729 107.38728333 C70.28963638 106.44077408 70.30079987 105.49426483 70.31230164 104.51907349 C70.31446182 103.4825766 70.31662201 102.44607971 70.31884766 101.37817383 C70.32889328 100.28533585 70.3389389 99.19249786 70.34928894 98.06654358 C70.38023188 94.44671159 70.39718708 90.82695393 70.4140625 87.20703125 C70.43276519 84.7002447 70.45233792 82.19346451 70.4727478 79.68669128 C70.51891121 73.75819083 70.55628536 67.82967604 70.58942068 61.90109223 C70.63138258 54.48933278 70.68695633 47.07768602 70.7421875 39.66601562 C70.83906611 26.44406453 70.92240305 13.22207834 71 0 C84.86 0 98.72 0 113 0 C113.06779292 22.62719092 113.123026 45.25429926 113.15543652 67.88156605 C113.17088712 78.38844763 113.19194205 88.8952615 113.22631836 99.40209961 C113.25627608 108.56282002 113.27558813 117.72349137 113.28226548 126.8842594 C113.28616695 131.73212903 113.29529818 136.57985834 113.31719017 141.42768288 C113.33765608 145.99702812 113.34381349 150.56617617 113.33932304 155.1355629 C113.34014374 156.80640042 113.34604892 158.477245 113.35761642 160.14804268 C113.44336952 173.18091418 112.53982173 185.46385631 104 196 C101.18348838 198.39252063 98.24186215 200.23913243 95 202 C93.9275 202.598125 92.855 203.19625 91.75 203.8125 C87.48559874 205.653946 83.51119069 206.12479879 78.89355469 206.16113281 C77.90192322 206.17074036 76.91029175 206.1803479 75.88861084 206.19024658 C74.82708801 206.19449646 73.76556519 206.19874634 72.671875 206.203125 C71.01650726 206.21167511 71.01650726 206.21167511 69.32769775 206.22039795 C66.99435378 206.22983301 64.66099658 206.23637599 62.32763672 206.24023438 C58.77677881 206.2499269 55.22650312 206.28095993 51.67578125 206.3125 C49.40364925 206.31903199 47.13151314 206.32428169 44.859375 206.328125 C43.8059491 206.3404718 42.75252319 206.3528186 41.66717529 206.36553955 C31.08532079 206.33391645 21.84185365 203.56088273 14.05078125 196.14453125 C4.41510453 185.70083133 4 173.70368926 4 160 C17.53 160 31.06 160 45 160 C45.33 163.96 45.66 167.92 46 172 C46.66 172.99 47.32 173.98 48 175 C50.09073276 175.46398705 50.09073276 175.46398705 52.5 175.3984375 C53.386875 175.40230469 54.27375 175.40617188 55.1875 175.41015625 C56.115625 175.39855469 57.04375 175.38695312 58 175.375 C58.928125 175.38660156 59.85625 175.39820313 60.8125 175.41015625 C61.699375 175.40628906 62.58625 175.40242187 63.5 175.3984375 C64.72203125 175.39336182 64.72203125 175.39336182 65.96875 175.38818359 C66.6390625 175.26008301 67.309375 175.13198242 68 175 C70.39629455 171.40555817 70.25781331 168.85138348 70.1953125 164.70703125 C70.1924826 164.00100266 70.18965271 163.29497406 70.18673706 162.56755066 C70.17555464 160.31569367 70.1504542 158.06423648 70.125 155.8125 C70.11496767 154.28451096 70.10584226 152.75651567 70.09765625 151.22851562 C70.07562172 147.48552337 70.04110567 143.74282944 70 140 C68.845 140.61875 67.69 141.2375 66.5 141.875 C58.81538561 145.6760735 51.76292069 146.36385337 43.25 146.3125 C42.27643555 146.30686035 41.30287109 146.3012207 40.29980469 146.29541016 C29.03542323 146.10547651 18.9651376 144.2841743 10 137 C-2.36123678 123.81290472 -0.53413775 105.25508414 -0.390625 88.57421875 C-0.38315387 86.01447494 -0.37746507 83.45472536 -0.37347412 80.89497375 C-0.35983349 74.87806849 -0.32840438 68.8615179 -0.28807616 62.84475404 C-0.24311865 55.98610036 -0.22131164 49.12743134 -0.20129442 42.26866663 C-0.15966306 28.17891777 -0.08640832 14.08954175 0 0 Z " fill="#000000" transform="translate(889,157)"/>
<path d="M0 0 C1.18574615 -0.00428513 2.37149231 -0.00857025 3.59317017 -0.01298523 C6.09270593 -0.01870901 8.59225834 -0.01924324 11.09179688 -0.01489258 C14.89482333 -0.01173473 18.69706964 -0.0352104 22.5 -0.06054688 C24.93749903 -0.06282042 27.37500013 -0.06352311 29.8125 -0.0625 C30.93884857 -0.07170975 32.06519714 -0.08091949 33.22567749 -0.09040833 C44.18291883 -0.02689389 54.00974425 2.25511621 62.2265625 9.86328125 C75.89548167 24.62571395 72.79505753 47.68973346 72.6640625 66.23828125 C72.6228125 74.50890625 72.5815625 82.77953125 72.5390625 91.30078125 C48.7790625 91.30078125 25.0190625 91.30078125 0.5390625 91.30078125 C-0.23229673 110.11502682 -0.23229673 110.11502682 2.5390625 128.30078125 C6.49733485 128.35863772 10.4554992 128.39432842 14.4140625 128.42578125 C15.54199219 128.44253906 16.66992188 128.45929688 17.83203125 128.4765625 C19.44658203 128.48623047 19.44658203 128.48623047 21.09375 128.49609375 C22.58624268 128.5118042 22.58624268 128.5118042 24.10888672 128.52783203 C26.72077667 128.54457526 26.72077667 128.54457526 28.5390625 126.30078125 C28.8690625 119.70078125 29.1990625 113.10078125 29.5390625 106.30078125 C43.3990625 106.30078125 57.2590625 106.30078125 71.5390625 106.30078125 C71.5803125 109.74515625 71.6215625 113.18953125 71.6640625 116.73828125 C71.68227051 117.8048999 71.70047852 118.87151855 71.71923828 119.97045898 C71.78049048 130.64908813 70.00339145 141.04901625 62.75 149.34765625 C55.41864315 156.18246702 47.03886074 159.38937768 37.06542969 159.46191406 C35.99371521 159.47152161 34.92200073 159.48112915 33.81781006 159.49102783 C32.66879211 159.49527771 31.51977417 159.49952759 30.3359375 159.50390625 C29.14357483 159.50960632 27.95121216 159.5153064 26.72271729 159.5211792 C24.2010588 159.53061713 21.67938804 159.53715838 19.15771484 159.54101562 C15.31716164 159.55071032 11.4771462 159.58174175 7.63671875 159.61328125 C5.18229483 159.61981292 2.7278671 159.62506274 0.2734375 159.62890625 C-0.86748352 159.64125305 -2.00840454 159.65359985 -3.18389893 159.6663208 C-13.94039996 159.63654986 -23.0483884 157.0913279 -31.15234375 149.7734375 C-42.72998212 137.44136655 -41.77525956 119.4695469 -41.76171875 103.72265625 C-41.76561499 101.82374988 -41.76995154 99.92484436 -41.77470398 98.02593994 C-41.78213304 94.05876839 -41.7818996 90.09168587 -41.77661133 86.12451172 C-41.77082869 81.08052879 -41.78773489 76.0369145 -41.810956 70.9929924 C-41.82580425 67.07379075 -41.82654995 63.15467555 -41.82344627 59.23545074 C-41.82395418 57.37781293 -41.82909025 55.52016957 -41.83925819 53.66255951 C-41.99038111 22.19109408 -41.99038111 22.19109408 -31.1484375 10.11328125 C-30.40980469 9.27410156 -29.67117188 8.43492187 -28.91015625 7.5703125 C-20.79431902 0.04989555 -10.43523838 -0.00841364 0 0 Z " fill="#020202" transform="translate(723.4609375,153.69921875)"/>
<path d="M0 0 C6.6 0 13.2 0 20 0 C21.33868878 4.01606635 22.43590692 7.63256231 23.296875 11.72314453 C23.53051758 12.82514191 23.76416016 13.92713928 24.00488281 15.06253052 C24.25077148 16.24072357 24.49666016 17.41891663 24.75 18.6328125 C25.0087793 19.86103729 25.26755859 21.08926208 25.53417969 22.35470581 C26.08047906 24.95162537 26.62540074 27.54878735 27.16796875 30.14648438 C27.71993338 32.7886664 28.27456051 35.43026326 28.83203125 38.07128906 C29.64087291 41.90370353 30.44607369 45.73686421 31.25 49.5703125 C31.49588867 50.73636017 31.74177734 51.90240784 31.99511719 53.10379028 C33.3310381 59.51292843 34.53195276 65.92266342 35.55541992 72.38937378 C35.97424219 74.84874715 36.48712861 77.26055881 37.0625 79.6875 C37.74084594 82.59395145 38.1744651 85.40270557 38.4375 88.375 C38.76352415 91.70959791 39.42824932 94.72443421 40.375 97.9375 C41.81852343 102.91975807 42.69900108 107.88532111 43.5 113 C44.42562308 118.88259413 45.59348412 124.51495321 47.26171875 130.23828125 C48.28006387 134.04764633 48.96593561 137.8992649 49.66845703 141.77758789 C50.99250007 149.05485323 52.42710705 156.30894273 53.875 163.5625 C54.00407745 164.20997192 54.13315491 164.85744385 54.2661438 165.52453613 C56.19284682 175.17378859 58.24420155 184.78961828 60.37963867 194.39453125 C61.69236909 200.36964345 62.77654201 206.30644827 63.54296875 212.37890625 C63.94853699 215.08838725 63.94853699 215.08838725 64.98046875 217.94140625 C66.72415777 223.17247332 67.29594475 228.54860077 68 234 C68.21849609 235.12341797 68.21849609 235.12341797 68.44140625 236.26953125 C68.83889402 239.36741216 68.37164593 241.49805664 66.52441406 243.99291992 C59.57985537 251.4949096 52.41496347 258.77117932 45.1862793 265.99902344 C43.0373188 268.15020725 40.89653027 270.30932053 38.75585938 272.46875 C37.39111286 273.83642449 36.02589614 275.20362998 34.66015625 276.5703125 C34.02062515 277.21702911 33.38109406 277.86374573 32.72218323 278.53005981 C28.22886926 283 28.22886926 283 26 283 C25.73807861 283.58499268 25.47615723 284.16998535 25.20629883 284.77270508 C23.088093 288.68373356 19.8085115 291.56053805 16.6875 294.6875 C16.02298828 295.37650391 15.35847656 296.06550781 14.67382812 296.77539062 C14.02220703 297.43087891 13.37058594 298.08636719 12.69921875 298.76171875 C12.10971436 299.35944092 11.52020996 299.95716309 10.9128418 300.57299805 C9 302 9 302 4 303 C4 204.66 4 106.32 4 5 C3.01 5 2.02 5 1 5 C0.67 3.35 0.34 1.7 0 0 Z " fill="#026DE2" transform="translate(181,108)"/>
<path d="M0 0 C13.86 0 27.72 0 42 0 C42 66.99 42 133.98 42 203 C28.14 203 14.28 203 0 203 C0 136.01 0 69.02 0 0 Z " fill="#010101" transform="translate(819,107)"/>
<path d="M0 0 C0 13.53 0 27.06 0 41 C-12.75 41.1875 -12.75 41.1875 -16.75292969 41.20776367 C-17.79868164 41.23588135 -18.84443359 41.26399902 -19.921875 41.29296875 C-20.99018555 41.3086792 -22.05849609 41.32438965 -23.15917969 41.34057617 C-26.09752971 41.78691237 -26.09752971 41.78691237 -28.14343262 43.88037109 C-30.84013809 48.41170157 -30.57194469 52.38918639 -30.54589844 57.57348633 C-30.55623611 58.63735565 -30.56657379 59.70122498 -30.57722473 60.79733276 C-30.60669059 64.30905274 -30.60815276 67.82019728 -30.609375 71.33203125 C-30.62435401 73.76870323 -30.64108057 76.20536504 -30.65948486 78.64201355 C-30.70320143 85.05187441 -30.72316722 91.4615983 -30.73822021 97.87158203 C-30.7577756 104.41381951 -30.79974744 110.95590874 -30.83984375 117.49804688 C-30.91519286 130.33201066 -30.96338426 143.16586719 -31 156 C-44.86 156 -58.72 156 -73 156 C-73 105.51 -73 55.02 -73 3 C-60.46 3 -47.92 3 -35 3 C-34.505 9.435 -34.505 9.435 -34 16 C-33.505 15.154375 -33.01 14.30875 -32.5 13.4375 C-24.25766913 1.10323181 -14.88947386 0 0 0 Z " fill="#000000" transform="translate(663,154)"/>
<path d="M0 0 C13.86 0 27.72 0 42 0 C42 50.49 42 100.98 42 153 C28.14 153 14.28 153 0 153 C0 102.51 0 52.02 0 0 Z " fill="#020202" transform="translate(519,157)"/>
<path d="M0 0 C6.35601947 3.48938549 10.55223846 8.00330395 12.8125 14.9375 C13.728904 23.67309139 12.85694484 30.1781234 7.4375 37.1875 C3.20096382 41.625776 -0.66898431 43.65731192 -6.73828125 44.140625 C-14.26584576 44.2683913 -19.07035652 43.07671611 -25.375 38.75 C-30.89802962 33.22697038 -32.43758556 28.72231351 -32.6875 20.875 C-32.45782662 13.93293679 -31.47724959 10.3575367 -26.609375 5.296875 C-18.69535723 -2.04676311 -9.96011785 -4.53140497 0 0 Z " fill="#020202" transform="translate(549.1875,100.0625)"/>
<path d="M0 0 C1.01449219 -0.00064453 2.02898438 -0.00128906 3.07421875 -0.00195312 C4.13253906 0.01802734 5.19085937 0.03800781 6.28125 0.05859375 C7.33957031 0.05150391 8.39789062 0.04441406 9.48828125 0.03710938 C17.12149847 0.10015374 17.12149847 0.10015374 19.58911133 1.58105469 C21.43273801 4.54263726 21.11652764 7.11508613 21.07421875 10.5703125 C21.06997391 11.25414505 21.06572906 11.9379776 21.06135559 12.64253235 C21.04458353 14.82328936 21.00693657 17.00311684 20.96875 19.18359375 C20.95370114 20.6633981 20.94001308 22.14321695 20.92773438 23.62304688 C20.89723807 27.24804066 20.83852136 30.8710288 20.78125 34.49609375 C11.21125 34.49609375 1.64125 34.49609375 -8.21875 34.49609375 C-8.28772545 30.29625544 -8.34742146 26.09839152 -8.38354492 21.8984375 C-8.39860681 20.47063529 -8.41906062 19.04287915 -8.44506836 17.61523438 C-8.48156842 15.55978002 -8.49850166 13.5049387 -8.51171875 11.44921875 C-8.5274292 10.21333008 -8.54313965 8.97744141 -8.55932617 7.70410156 C-7.93176095 1.79284204 -5.84532335 -0.01166225 0 0 Z " fill="#FAFBFB" transform="translate(732.21875,182.50390625)"/>
<path d="M0 0 C0.66 0 1.32 0 2 0 C2.02355913 22.68241179 2.04109047 45.3648215 2.05181217 68.04724312 C2.05692696 78.58358295 2.06387549 89.1199151 2.07543945 99.65625 C2.08553597 108.86007947 2.09188824 118.06390337 2.09408849 127.26773822 C2.09537074 132.12256174 2.09829274 136.97736934 2.10573006 141.83218765 C2.14268023 166.90542754 1.80543547 191.93909288 1 217 C2.32 216.67 3.64 216.34 5 216 C5 216.66 5 217.32 5 218 C2.525 218.99 2.525 218.99 0 220 C-0.99 219.01 -1.98 218.02 -3 217 C-2.34 216.67 -1.68 216.34 -1 216 C-0.67 144.72 -0.34 73.44 0 0 Z " fill="#2787F0" transform="translate(184,194)"/>
<path d="M0 0 C0.33 0 0.66 0 1 0 C1.14501592 7.34248018 1.28707878 14.68501357 1.42724609 22.02758789 C1.47509506 24.51685835 1.52357957 27.00611669 1.57275391 29.49536133 C2.04262525 53.31975651 2.04262525 53.31975651 2.09375 64.76171875 C2.1002356 65.49244095 2.10672119 66.22316315 2.11340332 66.97602844 C2.11624229 70.19700713 1.96137677 73.27041506 1.50563049 76.46125793 C0.77249495 82.14866177 0.82312063 87.83982918 0.79467773 93.56640625 C0.78477814 94.80627792 0.77487854 96.0461496 0.76467896 97.32359314 C0.73862284 100.70110556 0.7167072 104.07859602 0.69667697 107.45614624 C0.67470085 110.99422659 0.64736944 114.5322656 0.62062073 118.0703125 C0.57085013 124.7600996 0.52585379 131.44990984 0.48259836 138.1397419 C0.43309175 145.76012411 0.37822372 153.38046482 0.32291877 161.00080681 C0.20933894 176.66716612 0.10244834 192.3335637 0 208 C-0.33 208 -0.66 208 -1 208 C-1.02333088 181.1754789 -1.04098011 154.35095932 -1.05181217 127.52643013 C-1.05697472 115.07214138 -1.06401666 102.61785893 -1.07543945 90.16357422 C-1.08538752 79.31203802 -1.09185372 68.46050638 -1.09408849 57.60896575 C-1.09539539 51.85991151 -1.09847993 46.1108703 -1.10573006 40.36182022 C-1.1124922 34.95617951 -1.11461656 29.55055726 -1.11310768 24.14491272 C-1.11338392 22.15585607 -1.11538789 20.16679883 -1.11920547 18.17774582 C-1.12414574 15.4721627 -1.12299703 12.76665027 -1.12025452 10.06106567 C-1.12316736 9.26535601 -1.1260802 8.46964634 -1.12908131 7.64982426 C-1.11412121 2.22824242 -1.11412121 2.22824242 0 0 Z " fill="#1180F9" transform="translate(184,113)"/>
<path d="M0 0 C22.44 0 44.88 0 68 0 C68 0.33 68 0.66 68 1 C63.38 1 58.76 1 54 1 C54 1.66 54 2.32 54 3 C55.65 3 57.3 3 59 3 C59.495 3.99 59.495 3.99 60 5 C58.64509704 4.88325099 57.29109304 4.75606577 55.9375 4.625 C54.80634766 4.52058594 54.80634766 4.52058594 53.65234375 4.4140625 C51 4 51 4 47.97851562 3 C43.25629956 1.63424654 38.57776633 1.64687058 33.69140625 1.5859375 C32.72468491 1.56657135 31.75796356 1.5472052 30.76194763 1.5272522 C27.69555287 1.46780809 24.62911984 1.42121231 21.5625 1.375 C19.47459364 1.33678783 17.3867025 1.29773424 15.29882812 1.2578125 C10.19934338 1.16213562 5.09978489 1.07797545 0 1 C0 0.67 0 0.34 0 0 Z " fill="#ECECEC" transform="translate(153,25)"/>
<path d="M0 0 C0 3 0 3 -1.46875 4.80932617 C-2.1390625 5.46392822 -2.809375 6.11853027 -3.5 6.79296875 C-4.221875 7.50517578 -4.94375 8.21738281 -5.6875 8.95117188 C-6.450625 9.68916016 -7.21375 10.42714844 -8 11.1875 C-8.763125 11.93708984 -9.52625 12.68667969 -10.3125 13.45898438 C-12.20180839 15.31286823 -14.09775206 17.15941069 -16 19 C-16 13.77719767 -11.50919035 10.58625028 -8 7 C-5.39703481 4.58610154 -2.73530762 2.26244859 0 0 Z " fill="#D3E8FF" transform="translate(104,86)"/>
<path d="M0 0 C3.3 0 6.6 0 10 0 C10 0.66 10 1.32 10 2 C11.65 2 13.3 2 15 2 C15.33 2.66 15.66 3.32 16 4 C10.43109483 3.52013969 5.32932432 2.70084819 0 1 C0 0.67 0 0.34 0 0 Z " fill="#CEE5FF" transform="translate(197,26)"/>
<path d="M0 0 C0.94101563 0.00322266 1.88203125 0.00644531 2.8515625 0.00976562 C3.83640625 0.01814453 4.82125 0.02652344 5.8359375 0.03515625 C6.82851562 0.03966797 7.82109375 0.04417969 8.84375 0.04882812 C11.2995391 0.0606348 13.75520854 0.07710225 16.2109375 0.09765625 C16.2109375 0.42765625 16.2109375 0.75765625 16.2109375 1.09765625 C9.9409375 1.09765625 3.6709375 1.09765625 -2.7890625 1.09765625 C-2.7890625 1.75765625 -2.7890625 2.41765625 -2.7890625 3.09765625 C-4.1090625 2.43765625 -5.4290625 1.77765625 -6.7890625 1.09765625 C-4.33631109 -0.12871945 -2.7384844 -0.01649689 0 0 Z " fill="#B0D2F8" transform="translate(183.7890625,106.90234375)"/>
</svg>
